<mxfile host="app.diagrams.net" modified="2023-06-24T12:01:02.786Z" agent="Mozilla/5.0 (Windows NT 10.0; Win64; x64) AppleWebKit/537.36 (KHTML, like Gecko) Chrome/114.0.0.0 Safari/537.36" etag="ueebdEVL1K807mJPjP0z" version="21.5.0" type="device">
  <diagram name="Page-1" id="U72RxUkubcTSP7wyPlPS">
    <mxGraphModel dx="1436" dy="771" grid="1" gridSize="10" guides="1" tooltips="1" connect="1" arrows="1" fold="1" page="1" pageScale="1" pageWidth="850" pageHeight="1100" math="1" shadow="0">
      <root>
        <mxCell id="0" />
        <mxCell id="1" parent="0" />
        <mxCell id="6" value="" style="endArrow=classic;html=1;rounded=0;dashed=1;" parent="1" edge="1">
          <mxGeometry width="50" height="50" relative="1" as="geometry">
            <mxPoint x="50" y="230" as="sourcePoint" />
            <mxPoint x="50" y="40" as="targetPoint" />
          </mxGeometry>
        </mxCell>
        <mxCell id="7" value="" style="endArrow=classic;html=1;rounded=0;dashed=1;" parent="1" edge="1">
          <mxGeometry width="50" height="50" relative="1" as="geometry">
            <mxPoint x="50" y="230" as="sourcePoint" />
            <mxPoint x="360" y="230" as="targetPoint" />
          </mxGeometry>
        </mxCell>
        <mxCell id="8" value="\(t\)" style="text;html=1;strokeColor=none;fillColor=none;align=center;verticalAlign=middle;whiteSpace=wrap;rounded=0;fontSize=16;" parent="1" vertex="1">
          <mxGeometry x="323" y="230" width="60" height="30" as="geometry" />
        </mxCell>
        <mxCell id="o6WGqSr0qvT8_VpexqO--43" value="" style="curved=1;endArrow=none;html=1;rounded=0;endFill=0;" edge="1" parent="1">
          <mxGeometry width="50" height="50" relative="1" as="geometry">
            <mxPoint x="50" y="200" as="sourcePoint" />
            <mxPoint x="330" y="80" as="targetPoint" />
            <Array as="points">
              <mxPoint x="70" y="230" />
              <mxPoint x="120" y="140" />
              <mxPoint x="180" y="190" />
              <mxPoint x="230" y="80" />
              <mxPoint x="290" y="150" />
            </Array>
          </mxGeometry>
        </mxCell>
        <mxCell id="o6WGqSr0qvT8_VpexqO--44" value="\(x_t\)" style="text;html=1;align=center;verticalAlign=middle;resizable=0;points=[];autosize=1;strokeColor=none;fillColor=none;fontSize=17;" vertex="1" parent="1">
          <mxGeometry x="390" y="34.5" width="70" height="30" as="geometry" />
        </mxCell>
        <mxCell id="o6WGqSr0qvT8_VpexqO--45" value="" style="endArrow=classic;html=1;rounded=0;dashed=1;" edge="1" parent="1">
          <mxGeometry width="50" height="50" relative="1" as="geometry">
            <mxPoint x="440" y="230" as="sourcePoint" />
            <mxPoint x="440" y="40" as="targetPoint" />
          </mxGeometry>
        </mxCell>
        <mxCell id="o6WGqSr0qvT8_VpexqO--46" value="" style="endArrow=classic;html=1;rounded=0;dashed=1;" edge="1" parent="1">
          <mxGeometry width="50" height="50" relative="1" as="geometry">
            <mxPoint x="440" y="230" as="sourcePoint" />
            <mxPoint x="750" y="230" as="targetPoint" />
          </mxGeometry>
        </mxCell>
        <mxCell id="o6WGqSr0qvT8_VpexqO--47" value="\(t\)" style="text;html=1;strokeColor=none;fillColor=none;align=center;verticalAlign=middle;whiteSpace=wrap;rounded=0;fontSize=16;" vertex="1" parent="1">
          <mxGeometry x="713" y="230" width="60" height="30" as="geometry" />
        </mxCell>
        <mxCell id="o6WGqSr0qvT8_VpexqO--48" value="" style="curved=1;endArrow=none;html=1;rounded=0;endFill=0;" edge="1" parent="1">
          <mxGeometry width="50" height="50" relative="1" as="geometry">
            <mxPoint x="440" y="90" as="sourcePoint" />
            <mxPoint x="690" y="150" as="targetPoint" />
            <Array as="points">
              <mxPoint x="459" y="256" />
              <mxPoint x="514" y="88" />
              <mxPoint x="540" y="200" />
              <mxPoint x="578" y="124" />
              <mxPoint x="622" y="174" />
              <mxPoint x="650" y="140" />
            </Array>
          </mxGeometry>
        </mxCell>
        <mxCell id="o6WGqSr0qvT8_VpexqO--50" value="" style="curved=1;endArrow=none;html=1;rounded=0;endFill=0;dashed=1;" edge="1" parent="1">
          <mxGeometry width="50" height="50" relative="1" as="geometry">
            <mxPoint x="440" y="210" as="sourcePoint" />
            <mxPoint x="700" y="160" as="targetPoint" />
            <Array as="points">
              <mxPoint x="580" y="160" />
            </Array>
          </mxGeometry>
        </mxCell>
        <mxCell id="o6WGqSr0qvT8_VpexqO--51" value="" style="curved=1;endArrow=none;html=1;rounded=0;endFill=0;dashed=1;" edge="1" parent="1">
          <mxGeometry width="50" height="50" relative="1" as="geometry">
            <mxPoint x="440" y="90" as="sourcePoint" />
            <mxPoint x="697" y="147" as="targetPoint" />
            <Array as="points">
              <mxPoint x="560" y="150" />
            </Array>
          </mxGeometry>
        </mxCell>
        <mxCell id="o6WGqSr0qvT8_VpexqO--52" value="" style="endArrow=none;html=1;rounded=0;dashed=1;" edge="1" parent="1">
          <mxGeometry width="50" height="50" relative="1" as="geometry">
            <mxPoint x="56" y="205" as="sourcePoint" />
            <mxPoint x="330" y="80" as="targetPoint" />
          </mxGeometry>
        </mxCell>
        <mxCell id="o6WGqSr0qvT8_VpexqO--53" value="\(x_t\)" style="text;html=1;align=center;verticalAlign=middle;resizable=0;points=[];autosize=1;strokeColor=none;fillColor=none;fontSize=17;" vertex="1" parent="1">
          <mxGeometry y="34.5" width="70" height="30" as="geometry" />
        </mxCell>
        <mxCell id="o6WGqSr0qvT8_VpexqO--60" value="\(x_t\)" style="text;html=1;align=center;verticalAlign=middle;resizable=0;points=[];autosize=1;strokeColor=none;fillColor=none;fontSize=17;" vertex="1" parent="1">
          <mxGeometry x="390" y="264.5" width="70" height="30" as="geometry" />
        </mxCell>
        <mxCell id="o6WGqSr0qvT8_VpexqO--61" value="" style="endArrow=classic;html=1;rounded=0;dashed=1;" edge="1" parent="1">
          <mxGeometry width="50" height="50" relative="1" as="geometry">
            <mxPoint x="440" y="460" as="sourcePoint" />
            <mxPoint x="440" y="270" as="targetPoint" />
          </mxGeometry>
        </mxCell>
        <mxCell id="o6WGqSr0qvT8_VpexqO--62" value="" style="endArrow=classic;html=1;rounded=0;dashed=1;" edge="1" parent="1">
          <mxGeometry width="50" height="50" relative="1" as="geometry">
            <mxPoint x="440" y="460" as="sourcePoint" />
            <mxPoint x="750" y="460" as="targetPoint" />
          </mxGeometry>
        </mxCell>
        <mxCell id="o6WGqSr0qvT8_VpexqO--63" value="\(t\)" style="text;html=1;strokeColor=none;fillColor=none;align=center;verticalAlign=middle;whiteSpace=wrap;rounded=0;fontSize=16;" vertex="1" parent="1">
          <mxGeometry x="713" y="460" width="60" height="30" as="geometry" />
        </mxCell>
        <mxCell id="o6WGqSr0qvT8_VpexqO--64" value="" style="curved=1;endArrow=none;html=1;rounded=0;endFill=0;" edge="1" parent="1">
          <mxGeometry width="50" height="50" relative="1" as="geometry">
            <mxPoint x="440" y="370" as="sourcePoint" />
            <mxPoint x="710" y="380" as="targetPoint" />
            <Array as="points">
              <mxPoint x="460" y="440" />
              <mxPoint x="480" y="370" />
              <mxPoint x="490" y="380" />
              <mxPoint x="510" y="330" />
              <mxPoint x="540" y="440" />
              <mxPoint x="560" y="370" />
              <mxPoint x="570" y="380" />
              <mxPoint x="590" y="330" />
              <mxPoint x="620" y="440" />
              <mxPoint x="640" y="370" />
              <mxPoint x="650" y="380" />
              <mxPoint x="670" y="330" />
              <mxPoint x="700" y="450" />
            </Array>
          </mxGeometry>
        </mxCell>
        <mxCell id="o6WGqSr0qvT8_VpexqO--73" value="\(x_t\)" style="text;html=1;align=center;verticalAlign=middle;resizable=0;points=[];autosize=1;strokeColor=none;fillColor=none;fontSize=17;" vertex="1" parent="1">
          <mxGeometry y="264.5" width="70" height="30" as="geometry" />
        </mxCell>
        <mxCell id="o6WGqSr0qvT8_VpexqO--74" value="" style="endArrow=classic;html=1;rounded=0;dashed=1;" edge="1" parent="1">
          <mxGeometry width="50" height="50" relative="1" as="geometry">
            <mxPoint x="50" y="460" as="sourcePoint" />
            <mxPoint x="50" y="270" as="targetPoint" />
          </mxGeometry>
        </mxCell>
        <mxCell id="o6WGqSr0qvT8_VpexqO--75" value="" style="endArrow=classic;html=1;rounded=0;dashed=1;" edge="1" parent="1">
          <mxGeometry width="50" height="50" relative="1" as="geometry">
            <mxPoint x="50" y="460" as="sourcePoint" />
            <mxPoint x="360" y="460" as="targetPoint" />
          </mxGeometry>
        </mxCell>
        <mxCell id="o6WGqSr0qvT8_VpexqO--76" value="\(t\)" style="text;html=1;strokeColor=none;fillColor=none;align=center;verticalAlign=middle;whiteSpace=wrap;rounded=0;fontSize=16;" vertex="1" parent="1">
          <mxGeometry x="323" y="460" width="60" height="30" as="geometry" />
        </mxCell>
        <mxCell id="o6WGqSr0qvT8_VpexqO--77" value="" style="curved=1;endArrow=none;html=1;rounded=0;endFill=0;" edge="1" parent="1">
          <mxGeometry width="50" height="50" relative="1" as="geometry">
            <mxPoint x="50" y="370" as="sourcePoint" />
            <mxPoint x="320" y="380" as="targetPoint" />
            <Array as="points">
              <mxPoint x="70" y="440" />
              <mxPoint x="110" y="330" />
              <mxPoint x="150" y="430" />
              <mxPoint x="190" y="330" />
              <mxPoint x="230" y="430" />
              <mxPoint x="240" y="330" />
              <mxPoint x="250" y="430" />
              <mxPoint x="260" y="330" />
              <mxPoint x="270" y="430" />
              <mxPoint x="280" y="330" />
              <mxPoint x="290" y="430" />
              <mxPoint x="300" y="330" />
              <mxPoint x="310" y="430" />
            </Array>
          </mxGeometry>
        </mxCell>
        <mxCell id="o6WGqSr0qvT8_VpexqO--78" value="" style="endArrow=none;html=1;rounded=0;dashed=1;" edge="1" parent="1">
          <mxGeometry width="50" height="50" relative="1" as="geometry">
            <mxPoint x="225" y="461" as="sourcePoint" />
            <mxPoint x="225" y="321" as="targetPoint" />
          </mxGeometry>
        </mxCell>
        <mxCell id="o6WGqSr0qvT8_VpexqO--79" value="\((a)\)" style="text;html=1;strokeColor=none;fillColor=none;align=center;verticalAlign=middle;whiteSpace=wrap;rounded=0;fontSize=16;" vertex="1" parent="1">
          <mxGeometry x="183" y="239" width="60" height="30" as="geometry" />
        </mxCell>
        <mxCell id="o6WGqSr0qvT8_VpexqO--80" value="\((b)\)" style="text;html=1;strokeColor=none;fillColor=none;align=center;verticalAlign=middle;whiteSpace=wrap;rounded=0;fontSize=16;" vertex="1" parent="1">
          <mxGeometry x="573" y="239" width="60" height="30" as="geometry" />
        </mxCell>
        <mxCell id="o6WGqSr0qvT8_VpexqO--81" value="\((c)\)" style="text;html=1;strokeColor=none;fillColor=none;align=center;verticalAlign=middle;whiteSpace=wrap;rounded=0;fontSize=16;" vertex="1" parent="1">
          <mxGeometry x="183" y="479" width="60" height="30" as="geometry" />
        </mxCell>
        <mxCell id="o6WGqSr0qvT8_VpexqO--82" value="\((d)\)" style="text;html=1;strokeColor=none;fillColor=none;align=center;verticalAlign=middle;whiteSpace=wrap;rounded=0;fontSize=16;" vertex="1" parent="1">
          <mxGeometry x="573" y="479" width="60" height="30" as="geometry" />
        </mxCell>
      </root>
    </mxGraphModel>
  </diagram>
</mxfile>
